<svg width="197" height="89" viewBox="0 0 197 89" fill="none" xmlns="http://www.w3.org/2000/svg">
<path fill-rule="evenodd" clip-rule="evenodd" d="M134.614 60.6073V6.68689H167.261V60.6073H134.614ZM139.137 56.2032V11.091H162.738V56.2032H139.137Z" fill="#E3010F"/>
<path fill-rule="evenodd" clip-rule="evenodd" d="M134.614 60.6127C137.19 53.2364 139.769 45.8422 142.351 38.4299C144.934 31.0176 147.538 23.5511 150.164 16.0306L166.622 16.0793L183.054 16.128C180.403 23.6052 177.759 31.0554 175.122 38.4785L167.261 60.6289H134.614V60.6127ZM140.403 57.0039C142.568 50.8288 144.732 44.6338 146.896 38.419C149.06 32.2042 151.24 25.9642 153.437 19.6989L165.34 19.7368L177.243 19.7692C175.032 26.0201 172.826 32.2493 170.626 38.4569C168.426 44.6645 166.236 50.8486 164.058 57.0093H140.403V57.0039Z" fill="#E3010F"/>
<path fill-rule="evenodd" clip-rule="evenodd" d="M134.614 60.6127L145.879 45.4148L157.019 30.3846L173.191 30.1248L189.66 29.8597C185.967 34.9347 182.255 40.0314 178.525 45.1496L167.261 60.6127H134.614ZM140.912 58.1131L150.332 45.3823L159.659 32.7706L171.384 32.5974L183.254 32.4189C180.159 36.6679 177.052 40.9259 173.932 45.1929L164.512 58.086H152.609H140.885L140.912 58.1131Z" fill="#E3010F"/>
<path fill-rule="evenodd" clip-rule="evenodd" d="M134.614 60.6126L141.994 55.8623C144.434 54.2824 146.863 52.7188 149.293 51.1606L156.429 46.5671L163.463 42.017H195C192.739 43.5265 190.482 45.0414 188.21 46.5671L181.355 51.1606L174.321 55.8623L167.223 60.6126H134.614ZM141.545 59.049L147.664 55.0886L153.735 51.1606L159.686 47.3084L165.584 43.5211H188.437L182.713 47.3408L176.924 51.1606L171.032 55.0886L165.08 59.049H141.55H141.545Z" fill="#E3010F"/>
<path d="M8.02069 6.76781H13.1606V29.8271H8.02069V20.7321H5.19104V29.8271H0.051124V6.76781H5.19104V15.7275H8.02069V6.76781ZM26.1835 11.7725H21.3412V15.7275H25.8535V20.7321H21.3412V24.8224H26.1835V29.8325H16.2013V6.76781H26.1835V11.7725ZM40.7268 6.76781H47.1165V29.8271H41.9441V18.6275L39.4391 29.8271H36.3443L33.8393 18.6275V29.8271H28.6777V6.76781H35.0675L37.8755 21.0946L40.7105 6.76781H40.7268ZM59.8418 11.7725H54.9725V15.7275H59.5172V20.7321H55.0049V24.8224H59.8743V29.8325H49.8596V6.76781H59.8418V11.7725ZM75.2021 24.7575H76.8252V33.6523H71.6528V29.8H62.0926V6.76781H67.2325V24.7846H70.0676V6.76781H75.2075V24.7846L75.2021 24.7575ZM93.4353 29.8H87.9653L84.4431 22.4202V29.8H79.103V6.76781H84.4431V13.8501L87.7327 6.76781H93.2026L88.3927 18.1946L93.4353 29.8271V29.8ZM105.241 6.74074H110.31V29.8H105.138V17.6049L100.81 29.8271H95.7347V6.76781H100.907V18.9521L105.235 6.76781L105.241 6.74074ZM121.294 0.475464H124.919C124.888 1.68695 124.378 2.83686 123.501 3.67303C122.852 4.30089 122.035 4.72695 121.149 4.89951C120.263 5.07207 119.346 4.98371 118.509 4.64516C117.672 4.3066 116.951 3.7324 116.434 2.99224C115.917 2.25208 115.626 1.37779 115.596 0.475464H119.216C119.235 0.730265 119.354 0.96733 119.546 1.13554C119.743 1.30608 119.994 1.39997 120.255 1.39997C120.515 1.39997 120.767 1.30608 120.964 1.13554C121.156 0.96733 121.274 0.730265 121.294 0.475464ZM122.446 6.76781H127.521V29.8271H122.349V17.6049L118.02 29.8271H112.951V6.76781H118.118V18.9521L122.446 6.76781ZM0.00241548 52.8269V44.9979C-0.0249378 43.6846 0.180209 42.3768 0.608382 41.1349C0.925939 40.1653 1.48442 39.2922 2.23151 38.5974C2.86461 38.0294 3.59871 37.5852 4.39569 37.2881C6.00157 36.7361 7.74579 36.7361 9.35167 37.2881C10.1483 37.5709 10.883 38.0045 11.5158 38.565C12.2652 39.2427 12.8247 40.1043 13.139 41.0646C13.5583 42.3035 13.7686 43.6035 13.7612 44.9114V45.6851H8.48598V45.0467C8.42105 43.0069 7.90166 41.9897 6.9386 41.9897C6.68721 41.9836 6.44024 42.0566 6.23251 42.1983C6.02478 42.34 5.86677 42.5434 5.78076 42.7797C5.506 43.5606 5.38655 44.3876 5.4291 45.2144V52.605C5.3884 53.4387 5.50775 54.2726 5.78076 55.0614C5.86404 55.3007 6.02088 55.5076 6.22884 55.6524C6.43681 55.7972 6.68524 55.8725 6.9386 55.8675C7.9233 55.8675 8.44269 54.8233 8.48598 52.7403V52.1343H13.7612V52.9405C13.7696 54.2485 13.5593 55.5487 13.139 56.7873C12.8233 57.7484 12.2641 58.6115 11.5158 59.2924C10.883 59.8528 10.1483 60.2863 9.35167 60.5692C7.74579 61.1212 6.00157 61.1212 4.39569 60.5692C3.59971 60.27 2.86597 59.8261 2.23151 59.2599C1.48442 58.5651 0.925939 57.692 0.608382 56.7224C0.180209 55.4805 -0.0249378 54.1727 0.00241548 52.8593V52.8269ZM28.0718 37.1691V42.2765H24.4738V60.672H19.2365V42.2765H15.6927V37.1691H28.0718ZM38.7358 60.6882L37.962 56.1164H34.7158L33.9096 60.6882H28.6777L32.9412 37.1691H39.6988L44.0001 60.6882H38.7358ZM35.2406 50.8791H37.3344L36.2956 43.0827L35.2136 50.8791H35.2406ZM54.5721 37.1691H59.8148V60.6882H54.5721V51.4148H51.6829V60.6882H46.4402V37.1691H51.6829V46.3073H54.5721V37.1691ZM78.2373 55.5645H79.8605V64.7623H74.5853V60.7315H67.3894V64.7623H62.1142V55.5645H62.8176C64.2243 55.3986 64.9277 54.349 64.9277 52.4157V37.1691H78.2373V55.5645ZM69.5806 55.5645H72.9784V42.309H70.1758V52.5888C70.2034 53.6087 69.996 54.6213 69.5698 55.5483L69.5806 55.5645ZM91.9041 60.7045L91.1304 56.1326H87.8842L87.078 60.7045H81.8353L86.1041 37.1853H92.8564L97.1577 60.7045H91.9041ZM88.409 50.8953H90.5299L89.4857 43.0989L88.4036 50.8953H88.409ZM99.7114 37.1853H105.181C105.923 37.1811 106.663 37.2426 107.394 37.3692C108.115 37.5004 108.815 37.726 109.477 38.0401C110.14 38.3413 110.744 38.7571 111.263 39.2683C111.79 39.8161 112.195 40.4686 112.453 41.1836C112.768 42.0333 112.922 42.9341 112.907 43.8401V45.4633C112.929 46.4984 112.722 47.5256 112.301 48.4715C111.944 49.2809 111.386 49.9851 110.678 50.5166C109.994 51.0171 109.234 51.4044 108.428 51.6636C107.576 51.9264 106.694 52.0774 105.804 52.1127H104.965V60.6828H99.7222V37.1691L99.7114 37.1853ZM107.827 44.814V44.5435C107.873 43.9187 107.679 43.2999 107.286 42.8121C107.126 42.6379 106.931 42.4996 106.714 42.4064C106.496 42.3131 106.262 42.267 106.025 42.2711H104.943V47.0756H106.025C106.262 47.0807 106.497 47.0351 106.714 46.9418C106.932 46.8484 107.127 46.7096 107.286 46.5345C107.676 46.06 107.87 45.454 107.827 44.8411V44.814ZM127.494 37.1853V42.2927H123.901V60.6882H118.659V42.2927H115.099V37.1853H127.494Z" fill="#E3010F"/>
<path d="M7.70508 85.7623H6.05859L2.53125 81.4205V85.7623H1.13086V77.1959H2.53125V81.3444L6 77.1959H7.53516L4.07812 81.3326L7.70508 85.7623ZM15.3574 77.1959L12.6562 83.2897C12.3242 84.0358 12.0195 84.5768 11.7422 84.9127C11.4648 85.2448 11.1426 85.4889 10.7754 85.6451C10.4121 85.8014 9.9707 85.8795 9.45117 85.8795C8.99805 85.8795 8.57812 85.8209 8.19141 85.7037V84.444C8.57422 84.5963 8.97461 84.6725 9.39258 84.6725C9.74805 84.6725 10.0449 84.5865 10.2832 84.4147C10.5254 84.2389 10.7441 83.9244 10.9395 83.4713L7.78125 77.1959H9.29297L11.3848 81.4908C11.5723 81.8971 11.6875 82.1686 11.7305 82.3053H11.7891C11.8125 82.2037 11.8711 82.0416 11.9648 81.819L13.8926 77.1959H15.3574ZM22.8047 85.7623H21.1934L19.0488 82.2584L16.8867 85.7623H15.3867L18.2285 81.3209L15.5684 77.1959H17.127L19.1074 80.4362L21.0879 77.1959H22.5996L19.9219 81.3444L22.8047 85.7623ZM30.7148 85.7623H29.3086V81.901H25.3594V85.7623H23.959V77.1959H25.3594V80.6998H29.3086V77.1959H30.7148V85.7623ZM32.9707 77.1959H34.2539V81.649C34.2539 82.1139 34.2422 82.5846 34.2188 83.0612C34.1953 83.5338 34.1777 83.8541 34.166 84.0221H34.2188L38.5957 77.1959H40.2305V85.7623H38.9414V81.3444C38.9414 80.6686 38.9785 79.8483 39.0527 78.8834H39.0059L34.6113 85.7623H32.9707V77.1959ZM52.3477 85.7623H50.9414V81.901H46.9922V85.7623H45.5918V77.1959H46.9922V80.6998H50.9414V77.1959H52.3477V85.7623ZM59.918 85.7623L59.0625 83.3834H55.7871L54.9492 85.7623H53.4727L56.6777 77.1608H58.2012L61.4062 85.7623H59.918ZM58.6934 82.1764L57.8906 79.8444C57.832 79.6881 57.75 79.442 57.6445 79.1061C57.543 78.7701 57.4727 78.524 57.4336 78.3678C57.3281 78.8483 57.1738 79.3737 56.9707 79.944L56.1973 82.1764H58.6934ZM71.0859 79.1998C71.0859 79.7584 70.9004 80.2155 70.5293 80.5709C70.1621 80.9264 69.6523 81.153 69 81.2506V81.2858C69.75 81.3756 70.3203 81.5983 70.7109 81.9537C71.1055 82.3053 71.3027 82.7662 71.3027 83.3365C71.3027 84.1334 70.9902 84.7565 70.3652 85.2057C69.7441 85.6549 68.8848 85.8795 67.7871 85.8795C66.6465 85.8795 65.7344 85.7252 65.0508 85.4166V84.192C65.4297 84.3717 65.8535 84.5104 66.3223 84.608C66.7949 84.7057 67.2266 84.7545 67.6172 84.7545C69.1211 84.7545 69.873 84.2623 69.873 83.278C69.873 82.8248 69.6465 82.4791 69.1934 82.2408C68.7441 82.0026 68.0762 81.8834 67.1895 81.8834H66.1582V80.7584H67.125C68.832 80.7584 69.6855 80.3033 69.6855 79.3932C69.6855 79.0299 69.5391 78.7428 69.2461 78.5319C68.957 78.3209 68.5508 78.2155 68.0273 78.2155C67.6133 78.2155 67.2188 78.2701 66.8438 78.3795C66.4688 78.4889 66.0801 78.6744 65.6777 78.9362L65.0391 77.9869C65.918 77.3776 66.9531 77.0729 68.1445 77.0729C69.0508 77.0729 69.7676 77.2662 70.2949 77.653C70.8223 78.0397 71.0859 78.5553 71.0859 79.1998ZM78.3398 85.7623L77.4844 83.3834H74.209L73.3711 85.7623H71.8945L75.0996 77.1608H76.623L79.8281 85.7623H78.3398ZM77.1152 82.1764L76.3125 79.8444C76.2539 79.6881 76.1719 79.442 76.0664 79.1061C75.9648 78.7701 75.8945 78.524 75.8555 78.3678C75.75 78.8483 75.5957 79.3737 75.3926 79.944L74.6191 82.1764H77.1152ZM87.5332 85.7623H85.8867L82.3594 81.4205V85.7623H80.959V77.1959H82.3594V81.3444L85.8281 77.1959H87.3633L83.9062 81.3326L87.5332 85.7623ZM93.9844 85.7623L93.1289 83.3834H89.8535L89.0156 85.7623H87.5391L90.7441 77.1608H92.2676L95.4727 85.7623H93.9844ZM92.7598 82.1764L91.957 79.8444C91.8984 79.6881 91.8164 79.442 91.7109 79.1061C91.6094 78.7701 91.5391 78.524 91.5 78.3678C91.3945 78.8483 91.2402 79.3737 91.0371 79.944L90.2637 82.1764H92.7598ZM102.035 79.1998C102.035 79.7584 101.85 80.2155 101.479 80.5709C101.111 80.9264 100.602 81.153 99.9492 81.2506V81.2858C100.699 81.3756 101.27 81.5983 101.66 81.9537C102.055 82.3053 102.252 82.7662 102.252 83.3365C102.252 84.1334 101.939 84.7565 101.314 85.2057C100.693 85.6549 99.834 85.8795 98.7363 85.8795C97.5957 85.8795 96.6836 85.7252 96 85.4166V84.192C96.3789 84.3717 96.8027 84.5104 97.2715 84.608C97.7441 84.7057 98.1758 84.7545 98.5664 84.7545C100.07 84.7545 100.822 84.2623 100.822 83.278C100.822 82.8248 100.596 82.4791 100.143 82.2408C99.6934 82.0026 99.0254 81.8834 98.1387 81.8834H97.1074V80.7584H98.0742C99.7812 80.7584 100.635 80.3033 100.635 79.3932C100.635 79.0299 100.488 78.7428 100.195 78.5319C99.9062 78.3209 99.5 78.2155 98.9766 78.2155C98.5625 78.2155 98.168 78.2701 97.793 78.3795C97.418 78.4889 97.0293 78.6744 96.627 78.9362L95.9883 77.9869C96.8672 77.3776 97.9023 77.0729 99.0938 77.0729C100 77.0729 100.717 77.2662 101.244 77.653C101.771 78.0397 102.035 78.5553 102.035 79.1998ZM107.092 77.1959H109.635C110.814 77.1959 111.666 77.3678 112.189 77.7115C112.717 78.0553 112.98 78.5983 112.98 79.3405C112.98 79.8405 112.852 80.2565 112.594 80.5885C112.336 80.9205 111.965 81.1295 111.48 81.2155V81.274C112.082 81.3873 112.523 81.6119 112.805 81.9479C113.09 82.2799 113.232 82.7311 113.232 83.3014C113.232 84.0709 112.963 84.6744 112.424 85.1119C111.889 85.5455 111.143 85.7623 110.186 85.7623H107.092V77.1959ZM108.492 80.735H109.84C110.426 80.735 110.854 80.6432 111.123 80.4596C111.393 80.2721 111.527 79.9557 111.527 79.5104C111.527 79.108 111.381 78.817 111.088 78.6373C110.799 78.4576 110.338 78.3678 109.705 78.3678H108.492V80.735ZM108.492 81.8717V84.5846H109.98C110.566 84.5846 111.008 84.4733 111.305 84.2506C111.605 84.024 111.756 83.6686 111.756 83.1842C111.756 82.7389 111.604 82.4088 111.299 82.194C110.994 81.9791 110.531 81.8717 109.91 81.8717H108.492ZM124.705 85.7623H123.059L119.531 81.4205V85.7623H118.131V77.1959H119.531V81.3444L123 77.1959H124.535L121.078 81.3326L124.705 85.7623ZM131.514 79.7858C131.514 80.6803 131.221 81.3658 130.635 81.8424C130.049 82.319 129.215 82.5573 128.133 82.5573H127.242V85.7623H125.842V77.1959H128.309C129.379 77.1959 130.18 77.4147 130.711 77.8522C131.246 78.2897 131.514 78.9342 131.514 79.7858ZM127.242 81.3795H127.986C128.705 81.3795 129.232 81.2545 129.568 81.0045C129.904 80.7545 130.072 80.3639 130.072 79.8326C130.072 79.3405 129.922 78.9733 129.621 78.7311C129.32 78.4889 128.852 78.3678 128.215 78.3678H127.242V81.3795ZM138.539 85.7623L137.684 83.3834H134.408L133.57 85.7623H132.094L135.299 77.1608H136.822L140.027 85.7623H138.539ZM137.314 82.1764L136.512 79.8444C136.453 79.6881 136.371 79.442 136.266 79.1061C136.164 78.7701 136.094 78.524 136.055 78.3678C135.949 78.8483 135.795 79.3737 135.592 79.944L134.818 82.1764H137.314ZM144.803 78.274C143.998 78.274 143.365 78.5592 142.904 79.1295C142.443 79.6998 142.213 80.4869 142.213 81.4908C142.213 82.5416 142.434 83.3365 142.875 83.8756C143.32 84.4147 143.963 84.6842 144.803 84.6842C145.166 84.6842 145.518 84.649 145.857 84.5787C146.197 84.5045 146.551 84.4108 146.918 84.2975V85.4987C146.246 85.7526 145.484 85.8795 144.633 85.8795C143.379 85.8795 142.416 85.5006 141.744 84.7428C141.072 83.9811 140.736 82.8932 140.736 81.4791C140.736 80.5885 140.898 79.8092 141.223 79.1412C141.551 78.4733 142.023 77.9615 142.641 77.6061C143.258 77.2506 143.982 77.0729 144.814 77.0729C145.689 77.0729 146.498 77.2565 147.24 77.6237L146.736 78.7897C146.447 78.653 146.141 78.5338 145.816 78.4323C145.496 78.3268 145.158 78.274 144.803 78.274ZM155.52 85.7623H154.113V81.901H150.164V85.7623H148.764V77.1959H150.164V80.6998H154.113V77.1959H155.52V85.7623ZM165.381 81.4674C165.381 82.8619 165.031 83.9459 164.332 84.7194C163.637 85.4928 162.65 85.8795 161.373 85.8795C160.08 85.8795 159.086 85.4967 158.391 84.7311C157.699 83.9615 157.354 82.8698 157.354 81.4557C157.354 80.0416 157.701 78.9557 158.396 78.1979C159.096 77.4401 160.092 77.0612 161.385 77.0612C162.658 77.0612 163.643 77.4459 164.338 78.2155C165.033 78.985 165.381 80.069 165.381 81.4674ZM158.842 81.4674C158.842 82.5221 159.055 83.3229 159.48 83.8698C159.906 84.4127 160.537 84.6842 161.373 84.6842C162.205 84.6842 162.832 84.4147 163.254 83.8756C163.68 83.3365 163.893 82.5338 163.893 81.4674C163.893 80.4166 163.682 79.6198 163.26 79.0768C162.842 78.5338 162.217 78.2623 161.385 78.2623C160.545 78.2623 159.91 78.5338 159.48 79.0768C159.055 79.6198 158.842 80.4166 158.842 81.4674ZM166.16 84.5612H166.822C167.389 83.526 167.863 82.3639 168.246 81.0748C168.629 79.7858 168.875 78.4928 168.984 77.1959H173.408V84.5612H174.516V88.1237H173.168V85.7623H167.508V88.1237H166.16V84.5612ZM170.156 78.4088C170.07 79.2955 169.852 80.3248 169.5 81.4967C169.148 82.6647 168.748 83.6862 168.299 84.5612H172.008V78.4088H170.156ZM181.219 85.7623L180.363 83.3834H177.088L176.25 85.7623H174.773L177.979 77.1608H179.502L182.707 85.7623H181.219ZM179.994 82.1764L179.191 79.8444C179.133 79.6881 179.051 79.442 178.945 79.1061C178.844 78.7701 178.773 78.524 178.734 78.3678C178.629 78.8483 178.475 79.3737 178.271 79.944L177.498 82.1764H179.994ZM189.51 79.7858C189.51 80.6803 189.217 81.3658 188.631 81.8424C188.045 82.319 187.211 82.5573 186.129 82.5573H185.238V85.7623H183.838V77.1959H186.305C187.375 77.1959 188.176 77.4147 188.707 77.8522C189.242 78.2897 189.51 78.9342 189.51 79.7858ZM185.238 81.3795H185.982C186.701 81.3795 187.229 81.2545 187.564 81.0045C187.9 80.7545 188.068 80.3639 188.068 79.8326C188.068 79.3405 187.918 78.9733 187.617 78.7311C187.316 78.4889 186.848 78.3678 186.211 78.3678H185.238V81.3795ZM196.066 85.7623H191.221V77.1959H196.066V78.3795H192.621V80.7115H195.85V81.8834H192.621V84.5729H196.066V85.7623Z" fill="#262626"/>
</svg>
